<?xml version="1.0" encoding="utf-8"?>
<!-- Generator: Adobe Illustrator 19.2.1, SVG Export Plug-In . SVG Version: 6.00 Build 0)  -->
<svg version="1.1" id="Layer_1" xmlns="http://www.w3.org/2000/svg" xmlns:xlink="http://www.w3.org/1999/xlink" x="0px" y="0px"
	 viewBox="0 0 182.2 59.2" style="enable-background:new 0 0 182.2 59.2;" xml:space="preserve">
<path d="M8.5,7v3.3l1.5,1.5l-8.4,8.3L4.5,23l8.4-8.3l8.4,8.3l2.9-2.8l-8.4-8.3l1.5-1.5V7l2.4-2.4v3.3l0.9,0.9l3.7-3.7L25,5.9
	c-0.1-1-0.5-2.6-2.1-4.1c-0.8-0.8-1.6-1-2.3-1c-1,0-1.9,0.5-2.2,0.8c-0.1,0.1-0.2,0.1-0.2,0.1l-3.8,3.7l0.7,0.7L15,6.4l0.3-0.3
	l0.3,0.3L12.9,9l-2.6-2.6l1-1L7.5,1.7c0,0-0.1-0.1-0.2-0.1C7.2,1.5,7.1,1.3,6.9,1.2C6.4,1,5.8,0.7,5.2,0.7c-0.7,0-1.5,0.2-2.3,1
	c-1.6,1.5-2,3.1-2.1,4.1l0.8-0.7l3.7,3.7l0.9-0.9V4.6L8.5,7 M4.5,24l-3.9-3.9l8.4-8.3l-1.2-1.2V7.3L6.8,6.4v1.8L5.2,9.8L1.5,6.1
	L0.1,7.5L0,6.8c0,0,0-0.2,0-0.4c0-0.9,0.2-3.1,2.4-5.1C3.3,0.3,4.3,0,5.2,0C6.8,0,8,1.1,8.1,1.2l4.3,4.3l-1,1l1.5,1.5l1.5-1.5l-1-1
	l4.3-4.3c0,0,1.2-1.1,2.9-1.1c0.9,0,1.9,0.3,2.8,1.2c2.1,2,2.4,4.2,2.4,5.1c0,0.3,0,0.4,0,0.4l-0.1,0.7l-1.4-1.4l-3.7,3.7L19,8.2
	l0-1.8L18,7.3v3.3l-1.2,1.2l8.4,8.3L21.3,24l-8.4-8.3"/>
<path d="M3.2,39.7h0.7c1.4,0,1.6-0.2,1.6-1.3h0.3v3.2H5.5c0-1.2-0.2-1.3-1.6-1.3H3.2v2.3c0,1.4,0.2,1.6,1.3,1.6v0.3H0.7v-0.3
	c1.2,0,1.3-0.2,1.3-1.6v-4.5c0-1.4-0.2-1.6-1.3-1.6V36h6.6l0.1,1.8H7.2l-0.1-0.3c-0.2-0.7-0.3-1-1.6-1H3.2V39.7"/>
<path d="M10.6,38.8H9.8v2.4h0.8c0.8,0,1.2-0.5,1.2-1.2C11.7,39.4,11.4,38.8,10.6,38.8 M12,42.8c0.6,0.7,1.2,1.2,1.9,1.3v0.3h-1.8
	l-1.9-2.6H9.8v0.7c0,1.4,0.2,1.6,1.1,1.6v0.3H7.7v-0.3c0.9,0,1.1-0.2,1.1-1.6v-2.2c0-1.4-0.2-1.6-1.1-1.6v-0.3h2.9
	c1.4,0,2.2,0.7,2.2,1.7c0,0.9-0.6,1.6-1.7,1.7L12,42.8z"/>
<path d="M14.5,44.4v-0.3c0.9,0,1.1-0.2,1.1-1.6v-2.2c0-1.4-0.2-1.6-1.1-1.6v-0.3h3.2v0.3c-0.9,0-1.1,0.2-1.1,1.6v2.2
	c0,1.4,0.2,1.6,1.1,1.6v0.3H14.5"/>
<path d="M23.9,43l0.1-0.3h0.3l-0.1,1.7h-5.3v-0.3c0.9,0,1.1-0.2,1.1-1.6v-2.2c0-1.4-0.2-1.6-1.1-1.6v-0.3h4.9l0.1,1.7h-0.3l-0.1-0.3
	c-0.2-0.6-0.3-0.9-1.6-0.9H21v2.1h0.1c1.4,0,1.5-0.2,1.5-1.1h0.3v2.7h-0.3c0-0.9-0.1-1.1-1.5-1.1H21v0.8c0,1.4,0.2,1.6,1.1,1.6h0.2
	C23.6,43.9,23.8,43.6,23.9,43"/>
<path d="M28.5,38.8c-0.1,0-0.7,0-0.9,0v4c0,0.9,0.1,1.1,0.8,1.1h0.1c1.9,0,2.2-1.4,2.2-2.5C30.7,40.2,30.4,38.8,28.5,38.8
	 M25.5,44.1c0.9,0,1.1-0.2,1.1-1.6v-2.2c0-1.4-0.2-1.6-1.1-1.6v-0.3h3c2.4,0,3.4,1.4,3.4,3c0,1.7-1,3-3.4,3h-3V44.1z"/>
<path d="M35.6,38.8h-0.8v2.4h0.8c0.8,0,1.2-0.5,1.2-1.2C36.8,39.4,36.4,38.8,35.6,38.8 M37,42.8c0.6,0.7,1.2,1.2,1.9,1.3v0.3h-1.8
	l-1.9-2.6h-0.4v0.7c0,1.4,0.2,1.6,1.1,1.6v0.3h-3.2v-0.3c0.9,0,1.1-0.2,1.1-1.6v-2.2c0-1.4-0.2-1.6-1.1-1.6v-0.3h2.9
	c1.4,0,2.2,0.7,2.2,1.7c0,0.9-0.6,1.6-1.7,1.7L37,42.8z"/>
<path d="M39.7,44.4v-0.3c0.9,0,1.1-0.2,1.1-1.6v-2.2c0-1.4-0.2-1.6-1.1-1.6v-0.3h3.2v0.3c-0.9,0-1.1,0.2-1.1,1.6v2.2
	c0,1.4,0.2,1.6,1.1,1.6v0.3H39.7"/>
<path d="M49.3,44.4c-0.1-0.3-0.2-0.6-0.3-0.7c-0.4,0.5-1.2,0.9-1.9,0.9c-1.8,0-3.2-1.5-3.2-3.3c0-1.8,1.4-3.3,3.2-3.3
	c0.7,0,1.4,0.4,1.9,0.9c0.1-0.1,0.2-0.5,0.3-0.7h0.3v2.4h-0.3c-0.3-1.3-1-2.1-2.1-2.1c-1.6,0-2,1.6-2,2.7c0,1.2,0.5,2.7,2,2.7
	c1.1,0,1.8-0.8,2.1-2.1h0.3v2.4H49.3"/>
<path d="M56.2,40.9v-0.7c0-1.4-0.2-1.6-1.1-1.6v-0.3h3.2v0.3c-0.9,0-1.1,0.2-1.1,1.6v2.2c0,1.4,0.2,1.6,1.1,1.6v0.3h-3.2v-0.3
	c0.9,0,1.1-0.2,1.1-1.6v-1H53v1c0,1.4,0.2,1.6,1.1,1.6v0.3h-3.2v-0.3c0.9,0,1.1-0.2,1.1-1.6v-2.2c0-1.4-0.2-1.6-1.1-1.6v-0.3h3.2
	v0.3c-0.9,0-1.1,0.2-1.1,1.6v0.7H56.2"/>
<path d="M67.2,44.6H67l-2.3-7.1c-0.3-1-0.5-1.2-1.7-1.2V36H67v0.3c-1.2,0-1.3,0.3-1.1,1.1l1.5,4.8l2-6.2h0.2l2,6.2l1.5-4.8
	c0.2-0.8,0-1.1-1-1.1V36h3.2v0.3c-1.2,0-1.4,0.3-1.7,1.2l-2.3,7.1h-0.2l-2-6.2L67.2,44.6"/>
<path d="M74.7,44.4v-0.3c0.9,0,1.1-0.2,1.1-1.6v-2.2c0-1.4-0.2-1.6-1.1-1.6v-0.3h3.2v0.3c-0.9,0-1.1,0.2-1.1,1.6v2.2
	c0,1.4,0.2,1.6,1.1,1.6v0.3H74.7"/>
<path d="M79.2,38.6v-0.3h3.2v0.3c-0.9,0-1.1,0.2-1.1,1.6v2c0,1.4,0.2,1.6,1.1,1.6h0.5c1.3,0,1.5-0.2,1.6-0.9l0.1-0.3h0.3l-0.1,1.7
	h-5.6v-0.3c0.9,0,1.1-0.2,1.1-1.6v-2.2C80.3,38.8,80.1,38.6,79.2,38.6"/>
<path d="M90.9,40.9v-0.7c0-1.4-0.2-1.6-1.1-1.6v-0.3H93v0.3c-0.9,0-1.1,0.2-1.1,1.6v2.2c0,1.4,0.2,1.6,1.1,1.6v0.3h-3.2v-0.3
	c0.9,0,1.1-0.2,1.1-1.6v-1h-3.2v1c0,1.4,0.2,1.6,1.1,1.6v0.3h-3.2v-0.3c0.9,0,1.1-0.2,1.1-1.6v-2.2c0-1.4-0.2-1.6-1.1-1.6v-0.3h3.2
	v0.3c-0.9,0-1.1,0.2-1.1,1.6v0.7H90.9"/>
<path d="M99.1,43l0.1-0.3h0.3l-0.1,1.7h-5.3v-0.3c0.9,0,1.1-0.2,1.1-1.6v-2.2c0-1.4-0.2-1.6-1.1-1.6v-0.3H99l0.1,1.7h-0.3l-0.1-0.3
	c-0.2-0.6-0.3-0.9-1.6-0.9h-0.9v2.1h0.1c1.4,0,1.5-0.2,1.5-1.1h0.3v2.7h-0.3c0-0.9-0.1-1.1-1.5-1.1h-0.1v0.8c0,1.4,0.2,1.6,1.1,1.6
	h0.2C98.7,43.9,98.9,43.6,99.1,43"/>
<path d="M100.6,38.6v-0.3h3.2v0.3c-0.9,0-1.1,0.2-1.1,1.6v2c0,1.4,0.2,1.6,1.1,1.6h0.5c1.3,0,1.5-0.2,1.6-0.9l0.1-0.3h0.3l-0.1,1.7
	h-5.6v-0.3c0.9,0,1.1-0.2,1.1-1.6v-2.2C101.7,38.8,101.5,38.6,100.6,38.6"/>
<path d="M108.6,42.5c0,1.4,0.2,1.6,1.1,1.6v0.3h-2.7v-0.3c0.9,0,1.1-0.2,1.1-1.6v-2.2c0-1.4-0.2-1.6-1.1-1.6v-0.3h2.1l2.1,4.7
	l2.1-4.7h2v0.3c-0.9,0-1.1,0.2-1.1,1.6v2.2c0,1.4,0.2,1.6,1.1,1.6v0.3H112v-0.3c0.9,0,1.1-0.2,1.1-1.6v-2.6l-2.1,4.8h-0.2l-2.2-4.9
	V42.5"/>
<path d="M126.3,38.4c0-1-0.6-1.8-1.8-1.8h-1.2v3.7h1.2C125.8,40.2,126.3,39.4,126.3,38.4 M126.5,42.3c1.5,1.5,1.6,1.8,2.4,1.8
	l0.2,0.3h-2.3l-2.8-3.7h-0.7v1.7c0,1.4,0.2,1.6,1.3,1.6v0.3h-3.8v-0.3c1.2,0,1.3-0.2,1.3-1.6v-4.5c0-1.4-0.2-1.6-1.3-1.6V36h3.7
	c2,0,3,1.1,3,2.4c0,1.2-0.9,2.2-2.5,2.4L126.5,42.3z"/>
<path d="M131.7,39.7l-0.9,2.1h1.9L131.7,39.7 M130.2,43c-0.4,0.8-0.4,1.1,0.8,1.1v0.3h-2.7v-0.3c0.9,0,1-0.2,1.4-1.2l2.1-4.8h0.2
	l2.1,4.8c0.5,1,0.6,1.2,1.4,1.2v0.3h-3.1v-0.3c1,0,1.1-0.2,0.8-1.1l-0.3-0.6h-2.3L130.2,43z"/>
<path d="M135.9,44.4v-0.3c0.9,0,1.1-0.2,1.1-1.6v-2.2c0-1.4-0.2-1.6-1.1-1.6v-0.3h3.2v0.3c-0.9,0-1.1,0.2-1.1,1.6v2.2
	c0,1.4,0.2,1.6,1.1,1.6v0.3H135.9"/>
<path d="M143.5,44.1v0.3h-3.2v-0.3c0.9,0,1.1-0.2,1.1-1.6v-2.2c0-1.4-0.2-1.6-1.1-1.6v-0.3h5.1l0.1,1.7h-0.3l-0.1-0.3
	c-0.2-0.6-0.3-0.9-1.6-0.9h-1.1v2.1h0.1c1.4,0,1.5-0.2,1.5-1.1h0.3v2.7H144c0-0.9-0.1-1.1-1.5-1.1h-0.1v1
	C142.4,43.9,142.6,44.1,143.5,44.1"/>
<path d="M149.6,44.1v0.3h-3.2v-0.3c0.9,0,1.1-0.2,1.1-1.6v-2.2c0-1.4-0.2-1.6-1.1-1.6v-0.3h5.1l0.1,1.7h-0.3l-0.1-0.3
	c-0.2-0.6-0.3-0.9-1.6-0.9h-1.1v2.1h0.1c1.4,0,1.5-0.2,1.5-1.1h0.3v2.7h-0.3c0-0.9-0.1-1.1-1.5-1.1h-0.1v1
	C148.5,43.9,148.6,44.1,149.6,44.1"/>
<path d="M157.5,43l0.1-0.3h0.3l-0.1,1.7h-5.3v-0.3c0.9,0,1.1-0.2,1.1-1.6v-2.2c0-1.4-0.2-1.6-1.1-1.6v-0.3h4.9l0.1,1.7h-0.3
	l-0.1-0.3c-0.2-0.6-0.3-0.9-1.6-0.9h-0.9v2.1h0.1c1.4,0,1.5-0.2,1.5-1.1h0.3v2.7h-0.3c0-0.9-0.1-1.1-1.5-1.1h-0.1v0.8
	c0,1.4,0.2,1.6,1.1,1.6h0.2C157.2,43.9,157.3,43.6,157.5,43"/>
<path d="M159,44.4v-0.3c0.9,0,1.1-0.2,1.1-1.6v-2.2c0-1.4-0.2-1.6-1.1-1.6v-0.3h3.2v0.3c-0.9,0-1.1,0.2-1.1,1.6v2.2
	c0,1.4,0.2,1.6,1.1,1.6v0.3H159"/>
<path d="M165.7,44.6c-0.7,0-1.3-0.3-1.6-0.5c-0.1,0.1-0.2,0.3-0.3,0.5h-0.3v-2.4h0.3c0.1,1.2,0.9,1.9,1.9,1.9c0.6,0,1.1-0.3,1.1-0.9
	c0-0.5-0.4-0.9-1.2-1.2l-1-0.5c-0.7-0.3-1.2-0.9-1.2-1.7c0-0.9,0.7-1.6,1.8-1.6c0.6,0,1,0.2,1.3,0.4c0.1-0.1,0.2-0.2,0.2-0.4h0.3
	v2.4H167c-0.1-0.8-0.5-1.8-1.5-1.8c-0.5,0-1,0.3-1,0.8c0,0.5,0.4,0.8,1.2,1.2l0.9,0.5c0.8,0.4,1.1,1,1.1,1.6
	C167.7,43.8,166.8,44.6,165.7,44.6"/>
<path d="M173.8,43l0.1-0.3h0.3l-0.1,1.7h-5.3v-0.3c0.9,0,1.1-0.2,1.1-1.6v-2.2c0-1.4-0.2-1.6-1.1-1.6v-0.3h4.9l0.1,1.7h-0.3
	l-0.1-0.3c-0.2-0.6-0.3-0.9-1.6-0.9h-0.9v2.1h0.1c1.4,0,1.5-0.2,1.5-1.1h0.3v2.7h-0.3c0-0.9-0.1-1.1-1.5-1.1h-0.1v0.8
	c0,1.4,0.2,1.6,1.1,1.6h0.2C173.4,43.9,173.6,43.6,173.8,43"/>
<path d="M175.2,38.6v-0.3h1.7l3.7,4.4v-2.5c0-1.4-0.2-1.6-1.1-1.6v-0.3h2.7v0.3c-0.9,0-1.1,0.2-1.1,1.6v4.4h-0.3l-4.1-4.9v2.7
	c0,1.4,0.2,1.6,1.1,1.6v0.3h-2.7v-0.3c0.9,0,1.1-0.2,1.1-1.6v-2.2C176.3,38.8,176.1,38.6,175.2,38.6"/>
<path d="M5,54.9c0-0.7-0.4-1.3-1.3-1.3H2.5V55c0,1,0.1,1.2,1,1.2h0.3C4.6,56.2,5,55.6,5,54.9 M2.5,53.1h0.9c0.8,0,1.1-0.5,1.1-1.1
	c0-0.6-0.4-1.1-1.1-1.1H2.5V53.1z M5.9,54.9c0,0.9-0.8,1.7-2.2,1.7h-3v-0.2c0.8,0,1-0.2,1-1.2v-3.3c0-1-0.1-1.2-1-1.2v-0.2h2.7
	c1.3,0,2,0.7,2,1.5c0,0.5-0.3,1-0.8,1.3C5.4,53.5,5.9,54.1,5.9,54.9z"/>
<path d="M8.8,54.7c-1,0.2-1.4,0.6-1.4,1c0,0.3,0.2,0.5,0.5,0.5c0.2,0,0.5-0.1,0.9-0.5V54.7 M9.5,56.7c-0.4,0-0.6-0.2-0.7-0.6
	c-0.5,0.4-0.9,0.6-1.3,0.6c-0.5,0-0.9-0.3-0.9-0.8c0-0.9,1-1.2,2.2-1.4c0-0.8-0.1-1.1-0.7-1.1c-0.2,0-0.6,0.2-0.6,0.5
	c0,0.2-0.2,0.4-0.3,0.4c-0.2,0-0.4-0.2-0.4-0.4c0-0.5,0.6-0.8,1.3-0.8c1,0,1.4,0.4,1.4,1.4v1.5c0,0.3,0.1,0.4,0.2,0.4
	c0.1,0,0.2-0.1,0.3-0.2l0.1,0.2C9.9,56.6,9.7,56.7,9.5,56.7z"/>
<path d="M13.4,53c0.9,0,1.3,0.6,1.3,1.5v0.6c0,1,0.1,1.2,0.8,1.2v0.2h-2.3v-0.2c0.7,0,0.8-0.2,0.8-1.2v-0.6c0-0.7-0.2-1.1-0.8-1.1
	c-0.6,0-1.2,0.5-1.2,1v0.7c0,1,0.1,1.2,0.7,1.2v0.2h-2.2v-0.2c0.7,0,0.8-0.2,0.8-1.2v-0.5c0-1-0.1-1.2-0.8-1.2v-0.2l1.3-0.3
	c0.1,0.1,0.1,0.5,0.2,0.7C12.3,53.4,12.8,53,13.4,53"/>
<path d="M19.6,56.1c0.2,0.2,0.5,0.2,0.6,0.2v0.2h-1.1l-1.7-1.6L17.3,55v0.2c0,1,0.1,1.2,0.8,1.2v0.2h-2.3v-0.2
	c0.7,0,0.8-0.2,0.8-1.2V52c0-1-0.1-1.2-0.8-1.2v-0.2l1.5-0.3v4.3l0.9-0.7c0.3-0.3,0.2-0.5-0.3-0.5v-0.2h2v0.2c0,0-0.7,0.1-1.1,0.4
	L18,54.5L19.6,56.1"/>
<path d="M21.7,52c-0.2,0-0.4-0.2-0.4-0.5c0-0.2,0.2-0.4,0.4-0.4c0.2,0,0.4,0.2,0.4,0.4C22.1,51.8,21.9,52,21.7,52 M20.5,56.6v-0.2
	c0.7,0,0.8-0.2,0.8-1.2v-0.5c0-1-0.1-1.2-0.8-1.2v-0.2L22,53v2.1c0,1,0.1,1.2,0.8,1.2v0.2H20.5z"/>
<path d="M26.3,53c0.9,0,1.3,0.6,1.3,1.5v0.6c0,1,0.1,1.2,0.8,1.2v0.2h-2.3v-0.2c0.7,0,0.8-0.2,0.8-1.2v-0.6c0-0.7-0.2-1.1-0.8-1.1
	c-0.6,0-1.2,0.5-1.2,1v0.7c0,1,0.1,1.2,0.7,1.2v0.2h-2.2v-0.2c0.7,0,0.8-0.2,0.8-1.2v-0.5c0-1-0.1-1.2-0.8-1.2v-0.2l1.3-0.3
	c0.1,0.1,0.1,0.5,0.2,0.7C25.2,53.4,25.7,53,26.3,53"/>
<path d="M30.6,53.3c-0.5,0-0.7,0.5-0.7,1.1c0,0.6,0.2,1,0.7,1s0.7-0.5,0.7-1C31.3,53.8,31.1,53.3,30.6,53.3 M30.6,56.6
	c1.4,0.1,1.8,0.7,1.8,1.3c0,0.8-0.8,1.4-1.8,1.4c-1.7,0-2.4-1.3-1.1-1.9l0.2,0.1c-0.8,0.9,0.2,1.4,1,1.4c0.6,0,1.3-0.3,1.3-0.8
	c0-0.5-0.5-0.6-1.4-0.7c-0.8-0.1-1.4-0.3-1.4-0.9c0-0.4,0.3-0.6,0.9-0.8c-0.5-0.2-0.9-0.7-0.9-1.2c0-0.8,0.7-1.4,1.5-1.4
	c0.4,0,0.8,0.1,1,0.4c0.2-0.2,0.5-0.4,0.8-0.4c0.7,0,0.7,0.8,0.3,0.8c-0.4,0-0.2-0.5-0.6-0.5c-0.1,0-0.2,0.1-0.3,0.2
	c0.2,0.2,0.3,0.5,0.3,0.8c0,0.7-0.7,1.3-1.3,1.4c-0.4,0-1.1,0.2-1.1,0.4C29.6,56.5,30.2,56.5,30.6,56.6z"/>
<path d="M36.5,56.7h-0.2v-2.2h0.2c0,0,0,1.8,1.9,1.8c0.7,0,1.3-0.5,1.3-1.1c0-0.5-0.5-0.9-1.2-1.2l-1-0.5c-0.6-0.3-1.1-0.9-1.1-1.7
	c0-0.8,0.7-1.5,1.7-1.5c0.6,0,0.9,0.2,1.2,0.4c0.1-0.1,0.2-0.3,0.3-0.5h0.2v2.2h-0.2c-0.1-0.8-0.4-1.8-1.6-1.8c-0.6,0-1,0.4-1,0.9
	c0,0.5,0.4,0.8,1.2,1.3l1,0.5c0.8,0.4,1.1,1,1.1,1.5c0,1.1-0.9,1.8-1.9,1.8c-0.8,0-1.3-0.4-1.6-0.5C36.7,56.4,36.6,56.5,36.5,56.7"
	/>
<path d="M42.1,52c-0.2,0-0.4-0.2-0.4-0.5c0-0.2,0.2-0.4,0.4-0.4c0.2,0,0.4,0.2,0.4,0.4C42.6,51.8,42.4,52,42.1,52 M41,56.6v-0.2
	c0.7,0,0.8-0.2,0.8-1.2v-0.5c0-1-0.1-1.2-0.8-1.2v-0.2l1.5-0.3v2.1c0,1,0.1,1.2,0.8,1.2v0.2H41z"/>
<path d="M46.8,53c0.9,0,1.3,0.6,1.3,1.5v0.6c0,1,0.1,1.2,0.8,1.2v0.2h-2.3v-0.2c0.7,0,0.8-0.2,0.8-1.2v-0.6c0-0.7-0.2-1.1-0.8-1.1
	c-0.6,0-1.2,0.5-1.2,1v0.7c0,1,0.1,1.2,0.7,1.2v0.2h-2.2v-0.2c0.7,0,0.8-0.2,0.8-1.2v-0.5c0-1-0.1-1.2-0.8-1.2v-0.2l1.3-0.3
	c0.1,0.1,0.1,0.5,0.2,0.7C45.7,53.4,46.1,53,46.8,53"/>
<path d="M50.2,55c0,0.8,0.4,1.3,1.2,1.3c0.3,0,0.8-0.2,1.1-0.5l0.2,0.2c-0.4,0.4-0.9,0.7-1.5,0.7c-1.1,0-1.8-0.8-1.8-1.8
	c0-1.2,1-1.9,1.8-1.9c0.8,0,1.2,0.4,1.2,0.7c0,0.2-0.1,0.4-0.4,0.4c-0.2,0-0.4-0.2-0.4-0.4c0-0.3-0.2-0.4-0.4-0.4
	C50.6,53.3,50.2,54,50.2,55"/>
<path d="M55.9,54.2c0.1-0.3-0.1-0.8-0.7-0.8c-0.4,0-0.8,0.3-1,0.8H55.9 M55.5,56.3c0.3,0,0.8-0.2,1.1-0.5l0.2,0.2
	c-0.4,0.4-1,0.7-1.6,0.7c-1.1,0-1.9-0.8-1.9-1.9c0-1.1,0.9-1.8,1.9-1.8c0.9,0,1.6,0.7,1.4,1.6h-2.4C54,55.6,54.4,56.3,55.5,56.3z"/>
<path d="M66.7,51.6c0-0.4-0.2-0.9-0.9-0.9c-0.6,0-0.9,0.5-0.9,0.9c0,0.7,0.4,1,1,1.3C66.4,52.7,66.7,52.2,66.7,51.6 M64.6,55
	c0,0.6,0.4,1.3,1.2,1.3c0.8,0,1.2-0.7,1.2-1.2c0-0.8-0.7-1.3-1.5-1.7C65,53.8,64.6,54.3,64.6,55z M67.9,55c0,1-0.9,1.8-2,1.8
	c-1.1,0-2-0.7-2-1.7c0-1,0.7-1.5,1.5-1.8c-0.6-0.4-1.1-0.8-1.1-1.5c0-0.8,0.8-1.5,1.7-1.5c0.9,0,1.7,0.6,1.7,1.4
	c0,0.7-0.6,1.1-1.3,1.4C67.1,53.5,67.9,53.9,67.9,55z"/>
<path d="M72,51.6c0-0.4-0.2-0.9-0.9-0.9c-0.6,0-0.9,0.5-0.9,0.9c0,0.7,0.4,1,1,1.3C71.7,52.7,72,52.2,72,51.6 M69.9,55
	c0,0.6,0.4,1.3,1.2,1.3c0.8,0,1.2-0.7,1.2-1.2c0-0.8-0.7-1.3-1.5-1.7C70.3,53.8,69.9,54.3,69.9,55z M73.1,55c0,1-0.9,1.8-2,1.8
	s-2-0.7-2-1.7c0-1,0.7-1.5,1.5-1.8c-0.6-0.4-1.1-0.8-1.1-1.5c0-0.8,0.8-1.5,1.7-1.5c0.9,0,1.7,0.6,1.7,1.4c0,0.7-0.6,1.1-1.3,1.4
	C72.3,53.5,73.1,53.9,73.1,55z"/>
<path d="M76.5,56.3c0.9,0,1.2-0.8,1.2-1.5c0-0.7-0.3-1.5-1.2-1.5c-0.6,0-1.1,0.3-1.2,0.7C75.3,56.1,76.1,56.3,76.5,56.3 M76.5,52.9
	c1.1,0,2,0.8,2,1.9s-0.9,1.9-2,1.9c-0.8,0-2-0.5-2-2.9c0-1.7,0.8-3.6,2.3-3.6c0.8,0,1.5,0.4,1.5,0.8c0,0.2-0.2,0.3-0.3,0.3
	c-0.3,0-0.5-0.7-1.2-0.7c-1.1,0-1.4,1.5-1.5,2.9C75.5,53.2,75.9,52.9,76.5,52.9z"/>
<path d="M60.3,56.6v-0.3c0.8,0,0.9-0.2,0.9-1.6v-1.8c0-1.3-0.1-1.5-0.9-1.5v-0.3h2.5v0.3c-0.8,0-0.9,0.2-0.9,1.5v1.8
	c0,1.3,0.1,1.6,0.9,1.6v0.3H60.3"/>
</svg>
